<svg width="156" height="138" viewBox="0 0 156 138" fill="none" xmlns="http://www.w3.org/2000/svg" xmlns:xlink="http://www.w3.org/1999/xlink">
<path d="M62.4,82.054C79.631,82.054 93.6,68.695 93.6,52.216C93.6,35.737 79.631,22.378 62.4,22.378C45.169,22.378 31.2,35.737 31.2,52.216C31.2,68.695 45.169,82.054 62.4,82.054Z" fill="#FFFFFF"/>
<path d="M56.73,94.421C37.797,94.421 0,104.154 0,123.474L0,138L113.461,138L113.461,123.474C113.461,104.154 75.664,94.421 56.73,94.421ZM111.759,24.404L99.846,36.679C105.802,45.249 105.802,56.362 99.846,64.933L111.759,77.207C126.084,62.536 126.084,40.383 111.759,24.404ZM135.231,0L123.672,11.839C143.315,33.774 143.315,66.748 123.672,89.845L135.231,101.684C162.887,73.431 162.958,29.416 135.231,0Z" fill="#FFFFFF"/>
</svg>
