<svg width="100" height="100" viewBox="0 0 100 100" fill="none" xmlns="http://www.w3.org/2000/svg" xmlns:xlink="http://www.w3.org/1999/xlink">
<path d="M85,-0.998L15,-0.998C6.716,-0.998 0,5.765 0,14.108L0,84.601C0,92.944 6.716,99.707 15,99.707L85,99.707C93.284,99.707 100,92.944 100,84.601L100,14.108C100,5.765 93.284,-0.998 85,-0.998Z" fill="#ED1D24"/>
<path d="M83.398,32.242C82.617,29.292 80.078,26.931 77.148,26.145C70.508,24.374 30.469,24.178 22.852,26.145C19.922,26.931 17.383,29.292 16.602,32.242C14.844,39.716 14.648,58.795 16.602,66.466C17.383,69.416 19.922,71.776 22.852,72.563C29.883,74.53 69.922,74.53 77.148,72.563C80.078,71.776 82.617,69.416 83.398,66.466C85.156,59.385 85.156,39.519 83.398,32.242Z" fill="#FFFFFF"/>
<path d="M42.969,38.93L42.969,59.779L61.133,49.354Z" fill="#ED1D24"/>
</svg>
