<svg width="120" height="122" viewBox="0 0 120 122" fill="none" xmlns="http://www.w3.org/2000/svg" xmlns:xlink="http://www.w3.org/1999/xlink">
<path d="M60,121.775C93.137,121.775 120,94.723 120,61.353C120,27.982 93.137,0.93 60,0.93C26.863,0.93 0,27.982 0,61.353C0,94.723 26.863,121.775 60,121.775Z" fill="#0A66C2"/>
<path d="M81.223,82.736L72.316,82.736L72.316,68.693C72.316,65.341 72.246,61.033 67.676,61.033C63.035,61.033 62.32,64.68 62.32,68.445L62.32,82.736L53.414,82.736L53.414,53.846L61.969,53.846L61.969,57.788L62.086,57.788C63.281,55.522 66.188,53.127 70.523,53.127C79.547,53.127 81.211,59.11 81.211,66.887L81.223,82.736ZM43.371,49.893C40.5,49.893 38.203,47.556 38.203,44.689C38.203,41.821 40.512,39.484 43.371,39.484C46.23,39.484 48.539,41.821 48.539,44.689C48.539,47.556 46.219,49.893 43.371,49.893ZM47.836,82.736L38.906,82.736L38.906,53.846L47.836,53.846L47.836,82.736ZM85.676,31.141L34.441,31.141C31.992,31.141 30,33.088 30,35.507L30,87.315C30,89.723 31.98,91.682 34.441,91.682L85.664,91.682C88.113,91.682 90.117,89.734 90.117,87.315L90.117,35.507C90.117,33.088 88.113,31.141 85.676,31.141Z" fill="#FFFFFF"/>
</svg>
