<svg width="100" height="100" viewBox="0 0 100 100" fill="none" xmlns="http://www.w3.org/2000/svg" xmlns:xlink="http://www.w3.org/1999/xlink">
<path d="M85,-0.998L15,-0.998C6.716,-0.998 0,5.765 0,14.108L0,84.601C0,92.944 6.716,99.707 15,99.707L85,99.707C93.284,99.707 100,92.944 100,84.601L100,14.108C100,5.765 93.284,-0.998 85,-0.998Z" fill="#1877F2"/>
<path d="M69.453,63.91L71.68,49.355L57.813,49.355L57.813,39.914C57.813,35.941 59.746,32.047 65.957,32.047L72.266,32.047L72.266,19.655C72.266,19.655 66.543,18.672 61.074,18.672C49.648,18.672 42.188,25.635 42.188,38.262L42.188,49.355L29.492,49.355L29.492,63.91L42.188,63.91L42.188,99.708L57.813,99.708L57.813,63.91L69.453,63.91Z" fill="#FFFFFF"/>
</svg>
