<svg width="24" height="24" viewBox="0 0 24 24" fill="none" xmlns="http://www.w3.org/2000/svg" xmlns:xlink="http://www.w3.org/1999/xlink">
<path d="M11.487,23.791C11.198,23.791 10.928,23.716 10.675,23.565C10.423,23.415 10.188,23.157 9.972,22.792L0.02,6.084C-0.377,5.418 -0.575,4.57 -0.575,3.541C-0.575,2.512 -0.377,1.665 0.02,0.999C0.416,0.333 0.921,0 1.534,0C2.147,0 2.652,0.333 3.049,0.999L11.487,15.164L19.925,0.999C20.321,0.333 20.826,0 21.439,0C22.052,0 22.557,0.333 22.954,0.999C23.35,1.665 23.549,2.512 23.549,3.541C23.549,4.57 23.35,5.418 22.954,6.084L13.001,22.792C12.785,23.155 12.55,23.413 12.298,23.565C12.046,23.718 11.775,23.793 11.487,23.791Z" fill="#7752DF"/>
</svg>
