<svg width="26" height="24" viewBox="0 0 26 24" fill="none" xmlns="http://www.w3.org/2000/svg" xmlns:xlink="http://www.w3.org/1999/xlink">
<path d="M12.613,23.791C12.324,23.791 12.054,23.716 11.801,23.565C11.549,23.415 11.315,23.157 11.098,22.792L1.146,6.084C0.749,5.418 0.551,4.57 0.551,3.541C0.551,2.512 0.749,1.665 1.146,0.999C1.542,0.333 2.047,0 2.66,0C3.273,0 3.778,0.333 4.175,0.999L12.613,15.164L21.051,0.999C21.447,0.333 21.952,0 22.565,0C23.178,0 23.683,0.333 24.08,0.999C24.477,1.665 24.675,2.512 24.675,3.541C24.675,4.57 24.477,5.418 24.08,6.084L14.127,22.792C13.911,23.155 13.677,23.413 13.424,23.565C13.172,23.718 12.901,23.793 12.613,23.791Z" fill="#7752DF"/>
</svg>
