<svg width="88" height="88" viewBox="0 0 88 88" fill="none" xmlns="http://www.w3.org/2000/svg" xmlns:xlink="http://www.w3.org/1999/xlink">
<path d="M0,9.778L0,78.222C0,83.6 4.351,88 9.778,88L78.222,88C83.6,88 88,83.6 88,78.222L88,9.778C88,4.4 83.6,0 78.222,0L9.778,0C4.351,0 0,4.4 0,9.778ZM58.667,29.333C58.667,37.449 52.116,44 44,44C35.884,44 29.333,37.449 29.333,29.333C29.333,21.218 35.884,14.667 44,14.667C52.116,14.667 58.667,21.218 58.667,29.333ZM14.667,68.444C14.667,58.667 34.222,53.289 44,53.289C53.778,53.289 73.333,58.667 73.333,68.444L73.333,73.333L14.667,73.333L14.667,68.444Z" fill="#000000"/>
</svg>
